<?xml version="1.0" encoding="UTF-8" standalone="no"?>
<svg
   xmlns:dc="http://purl.org/dc/elements/1.1/"
   xmlns:cc="http://creativecommons.org/ns#"
   xmlns:rdf="http://www.w3.org/1999/02/22-rdf-syntax-ns#"
   xmlns:svg="http://www.w3.org/2000/svg"
   xmlns="http://www.w3.org/2000/svg"
   xmlns:sodipodi="http://sodipodi.sourceforge.net/DTD/sodipodi-0.dtd"
   xmlns:inkscape="http://www.inkscape.org/namespaces/inkscape"
   version="1.0"
   width="564pt"
   height="185pt"
   viewBox="0 0 564 185"
   preserveAspectRatio="xMidYMid meet"
   id="svg46"
   sodipodi:docname="logo.svg"
   inkscape:export-filename="/home/ivan/Escriptori/logo negro.svg.png"
   inkscape:export-xdpi="1210.08"
   inkscape:export-ydpi="1210.08"
   inkscape:version="0.92.4 (5da689c313, 2019-01-14)">
  <metadata
     id="metadata52">
    <rdf:RDF>
      <cc:Work
         rdf:about="">
        <dc:format>image/svg+xml</dc:format>
        <dc:type
           rdf:resource="http://purl.org/dc/dcmitype/StillImage" />
        <dc:title></dc:title>
      </cc:Work>
    </rdf:RDF>
  </metadata>
  <defs
     id="defs50" />
  <sodipodi:namedview
     pagecolor="#ffffff"
     bordercolor="#666666"
     borderopacity="1"
     objecttolerance="10"
     gridtolerance="10"
     guidetolerance="10"
     inkscape:pageopacity="0"
     inkscape:pageshadow="2"
     inkscape:window-width="1920"
     inkscape:window-height="1029"
     id="namedview48"
     showgrid="false"
     inkscape:zoom="1.251579"
     inkscape:cx="349.36873"
     inkscape:cy="124.51551"
     inkscape:window-x="0"
     inkscape:window-y="0"
     inkscape:window-maximized="1"
     inkscape:current-layer="layer2" />
  <g
     inkscape:groupmode="layer"
     id="layer4"
     inkscape:label="Layer 3"
     style="display:none">
    <rect
       style="fill:#000000;stroke-width:0.49020898"
       id="rect49"
       width="565.2998"
       height="185.28638"
       x="-1.198486"
       y="-0.16609402" />
  </g>
  <g
     inkscape:groupmode="layer"
     id="layer2"
     inkscape:label="Layer 2"
     style="display:inline">
    <g
       style="fill:#000000;stroke:none"
       transform="matrix(0.16384484,0,0,-0.16384484,-59.494846,261.19869)"
       id="g44">
      <path
         d="m 1345,1575 c -29,-28 -30,-38 -9,-74 15,-26 15,-32 0,-84 -15,-53 -19,-57 -47,-57 -17,0 -39,-5 -50,-11 -17,-9 -29,-3 -79,37 -49,41 -57,51 -49,67 11,20 -10,63 -37,74 -25,9 -64,-24 -64,-55 0,-37 17,-52 56,-52 43,0 150,-86 133,-106 -14,-17 -14,-83 0,-97 8,-8 1,-21 -26,-49 -33,-34 -40,-37 -77,-32 -33,5 -45,1 -63,-16 -47,-44 -18,-130 45,-130 56,0 92,51 73,103 -8,21 -4,30 29,62 32,31 41,35 58,26 36,-19 81,-13 109,15 l 26,26 50,-19 c 40,-14 51,-23 54,-43 4,-31 37,-60 69,-60 33,0 64,34 64,69 0,59 -82,90 -117,44 -11,-14 -17,-13 -61,1 -45,15 -50,20 -54,51 -4,33 0,37 50,71 41,27 57,33 67,24 22,-19 68,-8 81,19 23,45 -17,91 -65,76 -19,-6 -37,-39 -33,-60 1,-5 -23,-27 -53,-48 l -56,-39 -18,23 c -17,22 -18,27 -4,74 19,62 21,65 39,65 20,0 64,45 64,65 0,21 -44,65 -65,65 -9,0 -27,-11 -40,-25 z m 73,-7 c 7,-7 12,-21 12,-33 0,-12 -5,-26 -12,-33 -7,-7 -21,-12 -33,-12 -12,0 -26,5 -33,12 -7,7 -12,21 -12,33 0,12 5,26 12,33 7,7 21,12 33,12 12,0 26,-5 33,-12 z m -322,-83 c 11,-43 -34,-73 -64,-43 -27,27 -6,68 35,68 16,0 24,-7 29,-25 z m 470,-70 c 11,-43 -34,-73 -64,-43 -13,13 -16,50 -5,61 3,4 19,7 34,7 22,0 30,-6 35,-25 z m -223,-96 c 37,-45 13,-122 -42,-134 -52,-11 -100,27 -100,80 0,75 94,111 142,54 z m 242,-119 c 41,-45 -18,-110 -70,-76 -26,17 -32,45 -15,77 14,25 62,25 85,-1 z m -467,-86 c 32,-22 30,-78 -3,-100 -32,-21 -72,-11 -87,21 -28,62 34,118 90,79 z"
         id="path2"
         style="fill:#000000"
         inkscape:connector-curvature="0" />
      <path
         d="m 907,1245 c 8,-25 18,-45 23,-45 4,0 0,20 -9,45 -9,25 -19,45 -23,45 -4,0 0,-20 9,-45 z"
         id="path4"
         style="fill:#000000"
         inkscape:connector-curvature="0" />
      <path
         d="m 813,1247 c -61,-30 -73,-46 -55,-74 6,-9 21,-9 67,3 91,23 86,19 73,56 -6,18 -13,36 -17,39 -3,4 -34,-7 -68,-24 z"
         id="path6"
         style="fill:#000000"
         inkscape:connector-curvature="0" />
      <path
         d="m 660,1181 c -25,-10 -66,-25 -92,-35 -47,-17 -56,-29 -40,-54 7,-10 16,-9 45,3 30,12 41,13 58,3 18,-11 23,-10 42,14 12,15 35,31 50,37 24,9 26,14 17,31 -13,24 -22,24 -80,1 z"
         id="path8"
         style="fill:#000000"
         inkscape:connector-curvature="0" />
      <path
         d="m 428,1093 c -64,-24 -86,-47 -55,-59 15,-5 143,41 140,50 -2,3 -3,13 -3,21 0,18 1,18 -82,-12 z"
         id="path10"
         style="fill:#000000"
         inkscape:connector-curvature="0" />
      <path
         d="M 625,1068 C 563,895 550,854 554,843 c 11,-28 32,-11 53,45 l 21,57 1,-57 c 1,-51 4,-58 21,-58 16,0 19,8 22,58 l 3,57 21,-55 c 22,-56 31,-65 51,-52 9,5 0,39 -30,125 -37,103 -45,117 -65,117 -12,0 -25,-6 -27,-12 z"
         id="path12"
         style="fill:#000000"
         inkscape:connector-curvature="0" />
      <path
         d="m 542,814 c -22,-45 -66,-184 -59,-190 12,-12 23,7 57,99 21,60 29,92 22,99 -7,7 -13,4 -20,-8 z"
         id="path14"
         style="fill:#000000"
         inkscape:connector-curvature="0" />
      <path
         d="m 744,822 c -15,-10 54,-202 72,-202 8,0 14,2 14,5 0,5 -70,198 -73,201 -1,2 -7,0 -13,-4 z"
         id="path16"
         style="fill:#000000"
         inkscape:connector-curvature="0" />
      <path
         d="m 640,715 c 0,-63 4,-105 10,-105 6,0 10,42 10,105 0,63 -4,105 -10,105 -6,0 -10,-42 -10,-105 z"
         id="path18"
         style="fill:#000000"
         inkscape:connector-curvature="0" />
    </g>
    <flowRoot
       xml:space="preserve"
       id="flowRoot32"
       style="font-style:normal;font-weight:normal;font-size:192px;line-height:1.25;font-family:sans-serif;letter-spacing:0px;word-spacing:0px;fill:#000000;fill-opacity:1;stroke:none"
       transform="matrix(0.84600771,0,0,0.84600771,-41.825052,-19.920968)"><flowRegion
         id="flowRegion34"
         style="font-size:192px"><rect
           id="rect36"
           width="537.72076"
           height="217.32547"
           x="257.27502"
           y="10.989628"
           style="font-size:192px" /></flowRegion><flowPara
         id="flowPara38" /></flowRoot>    <g
       id="g46"
       transform="matrix(1.0362816,0,0,1.0362816,-9.9119469,-23.346393)">
      <text
         xml:space="preserve"
         style="font-style:normal;font-weight:normal;font-size:30px;line-height:1.25;font-family:sans-serif;letter-spacing:0px;word-spacing:0px;fill:#000000;fill-opacity:1;stroke:none;stroke-width:0.75"
         x="96.126389"
         y="175.91266"
         id="text55"><tspan
           sodipodi:role="line"
           x="96.126389"
           y="175.91266"
           id="tspan53"
           style="stroke-width:0.75;fill:#000000"><tspan
             x="96.126389"
             y="175.91266"
             style="font-size:73px;fill:#000000;stroke-width:0.75"
             id="tspan51">CAPAnalyzer</tspan></tspan></text>
    </g>
  </g>
</svg>
